PathFileType	4	(X/Y/Z)	Patient4_TMGait_0pt7_02_right_09.trc.trc
DataRate	CameraRate	NumFrames	NumMarkers	Units	OrigDataRate	OrigDataStartFrame	OrigNumFrames
89.171974522293	89.171974522293	5	33	mm	89.171974522293	1	       141
Frame#	Time	Sacral			L.Shoulder			Chest			R.Shoulder			Neck			R.ASIS			L.ASIS			R.Thigh.Superior			R.Thigh.Lateral			R.Thigh.Inferior			R.Patella			L.Thigh.Superior			L.Thigh.Lateral			L.Thigh.Inferior			L.Patella			L.Shank.Superior			L.Shank.Lateral			L.Shank.Inferior			R.Shank.Superior			R.Shank.Lateral			R.Shank.Inferior			R.Heel			R.Midfoot.Superior			R.Midfoot.Lateral			R.Toe			L.Heel			L.Midfoot.Lateral			L.Midfoot.Superior			L.Toe			L.Elbow			L.Wrist			R.Elbow			R.Wrist			
		X1	Y1	Z1	X2	Y2	Z2	X3	Y3	Z3	X4	Y4	Z4	X5	Y5	Z5	X6	Y6	Z6	X7	Y7	Z7	X8	Y8	Z8	X9	Y9	Z9	X10	Y10	Z10	X11	Y11	Z11	X12	Y12	Z12	X13	Y13	Z13	X14	Y14	Z14	X15	Y15	Z15	X16	Y16	Z16	X17	Y17	Z17	X18	Y18	Z18	X19	Y19	Z19	X20	Y20	Z20	X21	Y21	Z21	X22	Y22	Z22	X23	Y23	Z23	X24	Y24	Z24	X25	Y25	Z25	X26	Y26	Z26	X27	Y27	Z27	X28	Y28	Z28	X29	Y29	Z29	X30	Y30	Z30	X31	Y31	Z31	X32	Y32	Z32	X33	Y33	Z33	

1	9.360000000000	748.011185665337	1022.116337872160	448.847373362437	977.524285725778	1423.949958533907	257.285239430459	1067.143102582350	1349.084381355424	424.947246827536	987.553656797610	1444.150397384158	590.621460354942	984.073113231702	1490.399742240995	408.285368377077	967.357074528391	945.869002438993	571.312812459036	962.398995341894	958.091077359250	297.980298429484	1050.045577950727	784.760480860975	548.685517597557	1012.053718841911	663.974344845158	625.930811472245	1107.451043707200	626.396548083065	552.012648990869	1127.172442727265	511.083121614327	575.819036187659	1003.126521693472	750.351495192579	318.447961561752	906.838788192883	639.326249517996	266.482559061517	991.313091394002	558.833953139751	326.893020723252	989.714061287263	490.711985559730	337.189987891336	964.015135577891	420.394152951042	330.201187865642	873.777211386170	304.851137107056	282.250589702560	928.218274244346	194.935759958803	353.979529789433	1046.941730571761	438.166717536423	578.984177621270	920.132375456931	406.112387475545	632.992453789945	902.360871493863	298.388890518289	582.989056047479	699.813575175293	243.814011387306	542.689038535241	864.965479181519	184.834340043775	597.285909154484	752.486939789927	185.697476318075	621.524638708812	924.469374509137	70.571145940089	628.981816490296	803.258016402095	38.482548629116	402.929546773064	874.824123576778	35.340642880560	319.455039870164	958.583962695516	96.026679707997	343.524027970952	1086.613937389883	43.552776544961	312.099448102127	940.948548079174	1076.874133016310	138.137887056351	1070.314351221213	848.551778100417	150.918661372437	909.810569961811	1114.752475388243	724.856538764180	1128.366401301081	992.249331717483	672.029084525081	
2	9.371214285714	746.813129800182	1022.160310736528	447.314371812233	978.337757308491	1424.374271067958	257.114557923781	1066.463355911925	1349.286352810766	425.363753793872	985.539754259173	1444.023747859068	590.495578976515	983.530422786777	1490.547691342776	408.324895616090	965.691464835609	946.790019751762	571.298708532005	962.413534355178	958.477411170107	297.678950587653	1050.705417685515	788.842872275090	548.029678160275	1015.742422123213	667.413338510346	625.168257158050	1111.477007304283	631.830997319881	550.806227397820	1134.356469833334	517.473242050445	574.664860871101	1000.642527881791	749.466468472042	319.389923180055	903.695025563333	639.300098402331	266.350152086982	986.623757939714	557.983686817234	327.445733030295	984.033314393852	489.960026374934	337.893353578536	958.109197855041	419.931005003097	330.620330310642	867.537355138953	304.932538818896	282.248896846883	920.887734894831	194.723934157420	354.194402496350	1056.711603178855	442.263948988744	578.216705636181	931.830174372197	405.410628700142	633.005518036514	917.852159067616	297.182441251869	583.019158999974	717.509437282336	235.196329458348	544.213414681700	885.003789757555	182.187517966984	597.194069932680	772.907114531695	178.936731524032	622.493313141770	948.728932400216	70.355195318429	628.334320817287	794.962963698766	38.582435968699	402.855105659241	866.584922915464	35.349681055999	319.454274524036	950.385905211517	95.948773531348	343.588421554601	1078.415044250524	43.282670351333	312.120156178480	948.773323836150	1077.956384642768	135.699816937193	1090.895552845977	859.124898775181	149.707917652379	901.080960142440	1115.424251550581	722.763323815180	1106.395421062807	973.114032071614	678.467459126137	
3	9.382428571429	745.625699794087	1022.217636721873	445.811604082826	979.149932830257	1424.790799442033	256.965392942950	1065.799840933724	1349.478097235239	425.791005021128	983.551296972975	1443.885023522803	590.377232918134	982.997356874324	1490.682903875430	408.381516997930	964.059672475198	947.681380214441	571.303577890056	962.389388243448	958.802605230654	297.412919848816	1051.329470059180	792.829894457683	547.401905110825	1019.323627849577	670.784006187821	624.437276464271	1115.353560906900	637.128504880439	549.626846762321	1141.310739781214	523.741329917962	573.567852199712	998.170054432277	748.588674318771	320.374146872796	900.585179972423	639.268751827659	266.216376145194	981.975966108461	557.138399025003	327.986470524544	978.413814717825	489.222459121241	338.568033044030	952.272451111271	419.472080066938	331.019585711414	861.363369116681	305.008203674891	282.242876664518	913.644949734593	194.514027726492	354.400098540829	1066.279016864839	446.258367709302	577.487461997737	943.354452882307	404.588697003766	633.035053788535	933.192934368958	295.881889727014	583.068649742632	735.100860529327	226.475495238498	545.732213045112	904.906461912686	179.464057320483	597.121152977694	793.208648001530	172.087755003821	623.448173761193	972.855701913452	70.079149691979	627.693082886599	786.778267037986	38.677753942634	402.780441444964	858.451911506351	35.356372942978	319.452892832439	942.294294848435	95.873331064023	343.650288805316	1070.322162837074	43.019980362709	312.140801131748	956.429374826163	1079.051237633139	133.330246039313	1111.095026647779	869.750536978390	148.578265233711	892.642429290232	1116.034654171211	720.778540085284	1084.414356368818	954.403882052769	684.896576178620	
4	9.393642857143	744.470875779435	1022.283773618159	444.376208478144	979.960710841292	1425.186186156055	256.872297062703	1065.169596541196	1349.638971138862	426.250558618806	981.618353020948	1443.710414808029	590.289172208359	982.484030368336	1490.785664938666	408.482728727163	962.495369952713	948.496464589952	571.347504406760	962.302465823151	959.011960930906	297.214434205629	1051.863212541837	796.584393394294	546.834348444140	1022.652165755549	673.971062306327	623.775364626909	1118.898929943113	642.101884036244	548.514426948727	1147.779620020528	529.745400702163	572.582844055287	995.703635107836	747.708282392793	321.427147910818	897.496817510890	639.224800947068	266.080722227564	977.350144542928	556.291114315567	328.502033866399	972.845786684700	488.502840943495	339.185575309073	946.496343161899	419.015223216293	331.381042920656	855.238651489385	305.072790497922	282.229433954218	906.485229406351	194.304820303546	354.589571253791	1075.465364259330	450.035943330004	576.839819638367	954.641631427232	403.472844769697	633.122353884904	948.410028015860	294.373280631402	583.175845695645	752.793858363740	217.434173254117	547.275645245873	924.812055084249	176.593786872758	597.106549768113	813.600472438427	165.004498450042	624.402982831192	997.026537652617	69.777191398028	627.070339171479	778.713979872385	38.766876951054	402.705518080947	850.430756865881	35.359641667315	319.450507694623	934.315957629689	95.802201978751	343.707648170885	1062.340704190558	42.770502254399	312.160934436004	963.821055056484	1080.183594017568	131.094517818738	1130.644101638612	880.653360222510	147.641456278783	884.695569340729	1116.547755639397	719.005060640677	1062.225056283602	936.565602258079	691.333683007349	
5	9.404857142857	743.377638375730	1022.345420953224	443.045816673139	980.768131779461	1425.546808063634	256.866576787024	1064.587213203688	1349.748972263946	426.761639547612	979.770763219826	1443.477314726632	590.256945389718	981.999781632091	1490.839056616290	408.651731210608	961.024438155137	949.188496780461	571.442466956396	962.147880238330	959.075918624427	297.102949662143	1052.258131255936	799.979587151509	546.351606871331	1025.597028646624	676.862262402488	623.213327729272	1121.958415615285	646.579629883078	547.509236956972	1153.547393550371	535.355664196302	571.755697196158	993.236202263180	746.811497665950	322.556325206153	894.408687029998	639.161576321426	265.943218835464	972.717456435124	555.433188446736	328.980520211074	967.307960416510	487.802061536717	339.721790496800	940.756876545444	418.557208409495	331.690987842394	849.132098184783	305.121856889875	282.207033637480	899.386117747910	194.094321129168	354.757870009354	1084.125080518885	453.496833841104	576.310003428984	965.663593773169	401.912887772353	633.307821875037	963.559713151164	292.565678456644	583.376615810019	770.825977575234	207.887672712518	548.875935212168	944.888454690390	173.530476284627	597.186288130879	834.322353867896	157.570257241922	625.375295824279	1021.440493642144	69.507901304882	626.476241446283	770.756901011507	38.848820080028	402.629879694300	842.504815996553	35.358501773989	319.447077695699	926.434885469300	95.736647666874	343.758835774823	1054.453696926724	42.538513940167	312.179847082834	970.889804643516	1081.373022518618	129.045794851957	1149.339785000170	892.043605870546	146.995566742841	877.371090281031	1116.943658217940	717.518498343249	1039.648489882796	919.998847776895	697.786550842636	
